<svg xmlns="http://www.w3.org/2000/svg" width="53.039" height="53" viewBox="0 0 53.039 53">
  <g id="Icon_Illustration_Red_Global" data-name="Icon / Illustration / Red / Global" transform="translate(1.035 1)">
    <g id="Icon_Illustration_Red_Global-2" data-name="Icon / Illustration / Red / Global" transform="translate(0)">
      <path id="Shape" d="M3.736,38.786A25.5,25.5,0,0,1,44.182,8.142" transform="translate(0 0.018)" fill="none" stroke="#ff1c62" stroke-miterlimit="10" stroke-width="2"/>
      <path id="Shape-2" data-name="Shape" d="M37.285,0A25.5,25.5,0,0,1,0,33.8" transform="translate(9.612 11.652)" fill="none" stroke="#ff1c62" stroke-miterlimit="10" stroke-width="2"/>
      <path id="Shape-3" data-name="Shape" d="M.421,0A88.65,88.65,0,0,0,0,8.87c0,14.08,2.982,25.5,6.652,25.5,3.071,0,5.665-7.994,6.419-18.848" transform="translate(18.848 16.63)" fill="none" stroke="#ff1c62" stroke-miterlimit="10" stroke-width="2"/>
      <path id="Shape-4" data-name="Shape" d="M11.342,21.065C10.8,9.1,8.116,0,4.79,0,2.9,0,1.208,3,0,7.827" transform="translate(20.71)" fill="none" stroke="#ff1c62" stroke-miterlimit="10" stroke-width="2"/>
      <ellipse id="Oval" cx="17.739" cy="25.5" rx="17.739" ry="25.5" transform="translate(7.761)" fill="none" stroke="#ff1c62" stroke-miterlimit="10" stroke-width="2"/>
      <circle id="Oval-2" data-name="Oval" cx="4.435" cy="4.435" r="4.435" transform="translate(2.217 37.696)" fill="none" stroke="#ff1c62" stroke-miterlimit="10" stroke-width="2"/>
      <circle id="Oval-3" data-name="Oval" cx="4.435" cy="4.435" r="4.435" transform="translate(15.522 7.761)" fill="none" stroke="#ff1c62" stroke-miterlimit="10" stroke-width="2"/>
      <circle id="Oval-4" data-name="Oval" cx="5.543" cy="5.543" r="5.543" transform="translate(26.609 21.065)" fill="none" stroke="#ff1c62" stroke-miterlimit="10" stroke-width="2"/>
      <circle id="Oval-5" data-name="Oval" cx="2.217" cy="2.217" r="2.217" transform="translate(43.239 7.761)" fill="none" stroke="#ff1c62" stroke-miterlimit="10" stroke-width="2"/>
    </g>
  </g>
</svg>
